# xmcd
#
# Track frame offsets:
#	150
#	15896
#	37077
#	47850
#	65114
#	84551
#	102801
#	119258
#	136879
#	154713
#	166805
#	184879
#	201044
#	215172
#	227432
#
# Disc length: 3223
#
# Revision: 1
# Processed by: cddbd v1.5.1PL0 Copyright (c) Steve Scherf et al.
# Submitted via: WhereIsIt 3.23
# Normalized: r0:DSETVAR1
#
DISCID=c80c950f
DTITLE=Various Artist - Blues Story - Vol. 08 - Le Louisiana Blues
DYEAR=1900
DGENRE=
TTITLE0=Willy DeVille - Hello My Lover
TTITLE1=Tony Joe White - Undercover Agent For The Blues
TTITLE2=Fats Domino - Jambalaya
TTITLE3=Dr John - Memories Of Professor Longhair
TTITLE4=Katie Webster - Try A Little Tenderness
TTITLE5=Johnny Neel - The Blues Ain't Nothing
TTITLE6=Buckwheat Zydeco - Beast Of Burden
TTITLE7=C.J. Chenier - Louisiana Down Home Blues
TTITLE8=Sonny Landreth - New Landlord
TTITLE9=Earl King - A Mother's Love
TTITLE10=Coco Robicheaux - Louisiana Medicine Man
TTITLE11=Professor Longhair - Cry To Me
TTITLE12=Clarence "Gatemouth" Brown - C. Jam Blues
TTITLE13=The Meters - Chicken Strut
TTITLE14=Doug Kershaw and Fats Domino - Toot Toot
EXTD=
EXTT0=
EXTT1=
EXTT2=
EXTT3=
EXTT4=
EXTT5=
EXTT6=
EXTT7=
EXTT8=
EXTT9=
EXTT10=
EXTT11=
EXTT12=
EXTT13=
EXTT14=
PLAYORDER=
